# xmcd CD database file
# Copyright (C) 1995-1998 Ti Kan
#
# Track frame offsets:
#	150
#	17099
#	36906
#	56297
#	74977
#	93370
#	110994
#	125841
#	141996
#	159135
#	161589
#	176585
#	192481
#	206559
#
# Disc length: 2964 seconds
#
# Revision: 4
# Processed by: cddbd v1.4PL0 Copyright (c) Steve Scherf et al.
# Submitted via: CDex 1.30Release
#
DISCID=ca0b920e,d20b920e
DTITLE=Luciano Ligabue - Miss Mondo
DYEAR=1999
DGENRE=Blues
TTITLE0=Si Viene E Si Va
TTITLE1=Uno Dei Tanti
TTITLE2=Almeno Credo
TTITLE3=E
TTITLE4=Baby, è Un Mondo Super
TTITLE5=Una Vita Da Mediano
TTITLE6=Da Adesso In Poi
TTITLE7=L'Odore Del Sesso
TTITLE8=Kay è Stata Quì
TTITLE9=Qualcuno Ha Visto, Per Caso, Il Mio Cane Blu Elettrico Monofase?
TTITLE10=Sulla Mia Strada
TTITLE11=Forse Mi Trovo
TTITLE12=Miss Mondo
TTITLE13=La Porta Dei Sogni
EXTD=YEAR: 1999 ID3G:   0
EXTT0=
EXTT1=
EXTT2=
EXTT3=
EXTT4=
EXTT5=
EXTT6=
EXTT7=
EXTT8=
EXTT9=
EXTT10=
EXTT11=
EXTT12=
EXTT13=
PLAYORDER=
